HIERARCHY
ROOT hip
{
	OFFSET 0.000000 0.000000 0.000000 
	CHANNELS 6 Xposition Yposition Zposition Xrotation Zrotation Yrotation
	JOINT abdomen
	{
		OFFSET 0.000000 3.402643 0.000000 
		CHANNELS 3 Xrotation Zrotation Yrotation
		JOINT chest
		{
			OFFSET 0.000000 8.438565 -0.680529 
			CHANNELS 3 Xrotation Zrotation Yrotation
			JOINT neck
			{
				OFFSET 0.000000 10.207942 -0.272212 
				CHANNELS 3 Xrotation Zrotation Yrotation
				JOINT head
				{
					OFFSET 0.000000 3.130431 0.000000 
					CHANNELS 3 Xrotation Zrotation Yrotation
					End Site
					{
						OFFSET 0.000000 3.130435 0.000000 
					}
				}
			}
			JOINT lCollar
			{
				OFFSET 3.470700 6.669187 -0.816635 
				CHANNELS 3 Yrotation Zrotation Xrotation
				JOINT lShldr
				{
					OFFSET 3.198488 0.000000 0.000000 
					CHANNELS 3 Zrotation Yrotation Xrotation
					JOINT lForeArm
					{
						OFFSET 10.139888 0.000000 0.000000 
						CHANNELS 3 Yrotation Zrotation Xrotation
						JOINT lHand
						{
							OFFSET 8.370511 0.000000 0.000000 
							CHANNELS 3 Zrotation Yrotation Xrotation
							End Site
							{
								OFFSET 4.083176 0.000000 0.000000 
							}
						}
					}
				}
			}
			JOINT rCollar
			{
				OFFSET -3.470700 6.669187 -0.816635 
				CHANNELS 3 Yrotation Zrotation Xrotation
				JOINT rShldr
				{
					OFFSET -3.198488 0.000000 0.000000 
					CHANNELS 3 Zrotation Yrotation Xrotation
					JOINT rForeArm
					{
						OFFSET -10.139888 0.000000 0.000000 
						CHANNELS 3 Yrotation Zrotation Xrotation
						JOINT rHand
						{
							OFFSET -8.370511 0.000000 0.000000 
							CHANNELS 3 Zrotation Yrotation Xrotation
							End Site
							{
								OFFSET -4.083176 0.000000 0.000000 
							}
						}
					}
				}
			}
		}
	}
	JOINT lThigh
	{
		OFFSET 5.308129 -1.633274 1.361059 
		CHANNELS 3 Xrotation Zrotation Yrotation
		JOINT lShin
		{
			OFFSET -2.041588 -20.007561 0.000000 
			CHANNELS 3 Xrotation Zrotation Yrotation
			JOINT lFoot
			{
				OFFSET 0.000000 -19.190928 -1.224953 
				CHANNELS 3 Xrotation Yrotation Zrotation
				End Site
				{
					OFFSET 0.000000 -2.449906 4.627600 
				}
			}
		}
	}
	JOINT rThigh
	{
		OFFSET -5.308129 -1.633274 1.361059 
		CHANNELS 3 Xrotation Zrotation Yrotation
		JOINT rShin
		{
			OFFSET 2.041588 -20.007561 0.000000 
			CHANNELS 3 Xrotation Zrotation Yrotation
			JOINT rFoot
			{
				OFFSET 0.000000 -19.190928 -1.224953 
				CHANNELS 3 Xrotation Yrotation Zrotation
				End Site
				{
					OFFSET 0.000000 -2.449906 4.627600 
				}
			}
		}
	}
}
MOTION
Frames: 9
Frame Time: 0.011111
-29.017757 52.675819 -95.573532 1.995494 -4.742185 171.147522 29.349852 -2.878628 -7.864593 -30.705082 2.054216 -1.778368 -6.737379 -20.195444 -11.996081 15.365791 27.043945 -25.073284 -10.256527 -0.734681 -0.809317 -56.700615 -26.020620 5.314334 -57.879650 9.066820 11.469023 8.524705 12.647240 -66.165413 6.318032 -3.285348 0.526703 64.330841 7.405440 15.873768 53.247818 -8.381797 9.496799 -8.534408 -12.637552 28.626810 3.578320 -3.151874 -16.375086 20.166216 -5.791549 -3.550943 -34.943985 13.940320 7.143393 -20.559488 -4.684812 -9.409572 55.866405 3.183558 7.745783 -30.676199 -14.521351 -5.563477 
-28.983997 52.699532 -95.953171 1.896554 -4.667204 170.797058 29.311771 -2.696271 -8.088097 -30.568163 2.077302 -1.864168 -6.887448 -20.198036 -12.193216 15.078327 27.004271 -25.627180 -10.256527 -0.734681 -0.809317 -56.378212 -26.732096 5.887552 -58.154690 9.093480 11.587064 8.524705 12.647240 -65.432991 6.318032 -3.285348 0.526703 64.349686 7.496014 15.402080 52.973694 -8.328880 9.381875 -8.534408 -12.637552 28.685402 4.013664 -3.076187 -16.140480 20.015917 -5.783444 -3.535512 -34.916630 14.451420 7.366711 -20.895798 -4.354772 -9.612104 53.583046 3.427656 7.533116 -31.288267 -15.242180 -6.136784 
-28.950953 52.706711 -96.328506 1.884078 -4.623159 170.301834 29.384413 -2.569892 -8.288673 -30.431410 2.122443 -1.932696 -7.244301 -20.033468 -12.272480 14.970598 26.561949 -25.996336 -10.256527 -0.734681 -0.809317 -56.224022 -27.252924 6.527292 -58.601669 9.142567 11.781361 8.524705 12.647240 -65.022842 6.318032 -3.285348 0.526703 64.354080 7.712731 14.918015 52.668545 -8.269129 9.247217 -8.534408 -12.637552 28.460796 4.605102 -3.045519 -15.984972 19.705770 -5.803099 -3.490901 -35.111122 14.659292 7.557430 -21.100214 -4.041910 -9.703061 51.150497 3.652304 7.300401 -31.985065 -16.042433 -6.767745 
-28.905336 52.700603 -96.704552 1.803476 -4.646290 169.692307 29.360474 -2.554669 -8.406405 -30.538677 2.105716 -1.964636 -7.275613 -19.903664 -12.335188 14.839838 26.361584 -26.162945 -10.256527 -0.734681 -0.809317 -56.139118 -27.526985 7.079432 -59.004974 9.179958 11.957838 8.524705 12.647240 -64.729874 6.318032 -3.285348 0.526703 64.469482 7.470185 14.750827 52.763474 -8.288777 9.287337 -8.534408 -12.637552 28.685402 5.164651 -3.066023 -15.653950 19.408361 -5.811868 -3.446339 -35.288250 14.651389 7.631934 -21.268360 -3.720752 -9.698153 48.624573 3.922263 7.052578 -32.715088 -16.997940 -7.517259 
-28.848591 52.684086 -97.085274 1.722914 -4.651579 169.083389 29.198677 -2.567917 -8.522495 -30.304365 2.149268 -1.989495 -7.149457 -19.947834 -12.319040 14.384940 26.666632 -26.194244 -10.256527 -0.734681 -0.809317 -55.709988 -27.853907 8.813832 -59.452755 9.223980 12.154052 8.524705 12.647240 -63.587292 6.318032 -3.285348 0.526703 64.516106 7.318182 14.946966 53.204651 -8.368126 9.468614 -8.534408 -12.637552 29.242044 5.703207 -3.056758 -15.151626 19.146763 -5.800087 -3.411010 -35.658802 14.338584 7.653023 -21.342880 -3.319024 -9.612548 45.990128 4.140350 6.744406 -33.668056 -17.733084 -8.269241 
-28.790043 52.670071 -97.444092 1.652929 -4.709049 168.599197 29.143198 -2.566988 -8.711494 -30.235723 2.135441 -2.044080 -6.735647 -20.284174 -12.330260 13.816337 27.415657 -26.230278 -10.256527 -0.734681 -0.809317 -55.396145 -28.249565 9.939154 -59.856842 9.257129 12.332082 8.524705 12.647240 -63.069714 6.318032 -3.285348 0.526703 64.645943 7.205046 14.951270 53.511215 -8.429590 9.603004 -8.534408 -12.637552 29.495953 6.264764 -3.065416 -14.770259 18.698563 -5.831889 -3.355680 -36.028549 14.076249 7.700728 -21.420692 -2.977383 -9.375387 43.437698 4.365069 6.467887 -35.201736 -18.061880 -9.187922 
-28.731499 52.668640 -97.761948 1.592624 -4.736655 168.124863 29.407797 -2.524797 -9.057268 -30.822830 2.359378 -2.154684 -6.651236 -20.351280 -12.494310 13.828999 27.248930 -26.583893 -10.256527 -0.734681 -0.809317 -55.482506 -28.233860 10.369718 -60.336205 9.295057 12.544579 8.524705 12.647240 -63.225967 6.318032 -3.285348 0.526703 64.538666 6.780166 15.288386 53.710754 -8.462890 9.688210 -8.534408 -12.637552 29.779154 6.829959 -3.016418 -14.530305 18.120367 -5.850811 -3.257668 -35.872002 14.162851 7.646615 -21.497448 -2.576972 -9.058561 40.900684 4.586054 6.153780 -37.060192 -18.253347 -10.239628 
-28.660744 52.679054 -98.171043 1.666220 -5.005350 167.495468 29.209940 -2.813448 -9.264054 -30.794119 2.465940 -2.176110 -6.202179 -20.655899 -12.563643 13.379720 27.713383 -26.703718 -10.256527 -0.734681 -0.809317 -55.566498 -28.317106 10.886734 -60.793369 9.324698 12.748079 8.524705 12.647240 -63.460339 6.318032 -3.285348 0.526703 64.441582 6.435085 15.593689 53.975365 -8.513814 9.804914 -8.534408 -12.637552 30.033062 7.757823 -3.319326 -14.399724 17.549658 -5.869090 -3.189516 -36.270927 13.989609 7.759287 -21.414024 -2.538599 -8.924086 38.418514 4.765092 5.881651 -38.497692 -18.656595 -11.240197 
-28.582804 52.682281 -98.580864 1.527014 -5.186263 166.585129 28.813269 -3.039937 -9.253132 -30.657387 2.455191 -2.138823 -6.231880 -20.600084 -12.520836 13.290807 27.692860 -26.650312 -10.256527 -0.734681 -0.809317 -55.484604 -28.442780 11.572064 -61.220455 9.354882 12.947172 8.524705 12.647240 -63.235729 6.318032 -3.285348 0.526703 64.507706 6.196824 15.741138 54.354309 -8.574107 9.956420 -8.534408 -12.637552 30.179546 8.458090 -3.514122 -14.107747 16.938124 -5.879915 -3.106080 -36.913074 14.005855 8.069746 -21.492140 -2.246031 -8.546331 35.960896 4.940833 5.575674 -39.923786 -19.368904 -12.400065 
